<svg xmlns="http://www.w3.org/2000/svg" width="32" height="26" viewBox="0 0 32 26">
    <path fill="#B3D40E" fill-rule="evenodd" d="M7.226 25.29c-2.163 0-3.908-.762-5.235-2.285C.664 21.48 0 19.44 0 16.885c0-3.49 1.045-6.734 3.134-9.733C5.223 4.154 8.16 1.77 11.944 0l2.581 5.014c-1.818.786-3.367 1.794-4.645 3.023-1.278 1.229-2.113 2.605-2.507 4.129l-.073.295 1.106-.074c1.72 0 3.133.553 4.24 1.66 1.105 1.105 1.658 2.543 1.658 4.312 0 1.377-.32 2.593-.958 3.65a6.534 6.534 0 0 1-2.544 2.433c-1.057.566-2.249.848-3.576.848zm17.548 0c-2.212 0-3.981-.762-5.309-2.285-1.327-1.524-1.99-3.564-1.99-6.12 0-3.49 1.044-6.734 3.133-9.733C22.698 4.154 25.634 1.77 29.42 0L32 5.014c-1.819.786-3.367 1.794-4.645 3.023-1.278 1.229-2.114 2.605-2.507 4.129l-.074.295 1.106-.074c1.72 0 3.134.553 4.24 1.66 1.106 1.105 1.659 2.543 1.659 4.312 0 1.377-.307 2.593-.922 3.65a6.22 6.22 0 0 1-2.544 2.433c-1.081.566-2.26.848-3.539.848z"/>
</svg>
