<svg xmlns="http://www.w3.org/2000/svg" viewBox="0 0 45.99 61.11"><defs><style>.cls-1{fill:#b3d40e;}</style></defs><title>no-5</title><g id="Layer_2" data-name="Layer 2"><g id="Line"><path class="cls-1" d="M.11,46a9.09,9.09,0,0,1,1.48-4.32,18.2,18.2,0,0,1,3-3.44,3.86,3.86,0,0,1,1.76-.88,6.18,6.18,0,0,1,4.48.24.55.55,0,0,1,.4.48,1.17,1.17,0,0,1-.08.72,3.53,3.53,0,0,1-1,1.16,6.37,6.37,0,0,1-1.28.68A5.32,5.32,0,0,0,6.55,42a19.83,19.83,0,0,0-1.72,1.84,5.75,5.75,0,0,0-1.2,2.8,3.31,3.31,0,0,0,.8,3.28A3.66,3.66,0,0,0,7.71,51c.42-.11.84-.2,1.24-.28a6,6,0,0,0,1.16-.36,30.67,30.67,0,0,0,3.52-1.48,21.64,21.64,0,0,0,3.28-2,12.52,12.52,0,0,1,1-.76c.34-.24.73-.5,1.16-.76a10.6,10.6,0,0,0,4-3.36c1-1.44,2.09-2.86,3.16-4.24.16-.27.32-.58.48-.92s.32-.68.48-1a4.26,4.26,0,0,0,.48-2.44,7.25,7.25,0,0,0-.8-2.36A2.5,2.5,0,0,0,25,29.55c-.27-.11-.52-.2-.76-.28a1.06,1.06,0,0,0-.76,0c-1.39.16-2.8.38-4.24.68a12.18,12.18,0,0,0-4,1.56c-.75.42-1.44.78-2.08,1.08a13.27,13.27,0,0,0-1.92,1.08,1.81,1.81,0,0,1-1.24,0,2.71,2.71,0,0,1-1.16-.68,5.8,5.8,0,0,1-1.68-2.76,5.47,5.47,0,0,1,.4-3.24c.26-.8.56-1.59.88-2.36s.66-1.56,1-2.36c.16-.43.3-.82.44-1.16a6.15,6.15,0,0,1,.6-1.16l7.92-13,.32-.48a1.93,1.93,0,0,1,.32-.4,5.05,5.05,0,0,0,.56-4.4,1,1,0,0,1,0-1.12A1.54,1.54,0,0,1,20.83.11,5.88,5.88,0,0,1,22.55,0a3.8,3.8,0,0,1,1.72.64,9.37,9.37,0,0,0,4.48,1.8q2.4.27,4.8.36a6,6,0,0,0,1.76-.28c.58-.19,1.17-.36,1.76-.52s1.46-.46,2.16-.72l2.08-.8a1.06,1.06,0,0,1,.76,0,.84.84,0,0,1,.52.52,8.26,8.26,0,0,0,2.32,4.48,5.53,5.53,0,0,1,.88,1.84,1.82,1.82,0,0,1-.16,1.92,3.8,3.8,0,0,1-2.8,2l-3.76.48c-1.28.16-2.56.29-3.84.4a7.21,7.21,0,0,1-1.8.08L31.63,12c-.59-.06-1.18-.1-1.76-.12a14.81,14.81,0,0,1-1.76-.2,7.19,7.19,0,0,0-.8.2.82.82,0,0,0-.56.44c-1.23,1.44-2.44,2.94-3.64,4.52A18.09,18.09,0,0,0,20.35,22a.47.47,0,0,0,.16.32l.32.32c.05.1.21.16.48.16a4.22,4.22,0,0,1,2.76,0,6.55,6.55,0,0,1,2.28,1.56c.64.69,1.25,1.37,1.84,2a10.08,10.08,0,0,1,1.52,2.36c.32.74.68,1.49,1.08,2.24s.81,1.49,1.24,2.24c.26.58.52,1.13.76,1.64s.46,1.05.68,1.64A6.7,6.7,0,0,1,33.31,43a62.09,62.09,0,0,1-3.64,6.32,21.3,21.3,0,0,1-5.08,5.28q-2.25,1.59-4.44,3a36.3,36.3,0,0,1-4.76,2.52,10.26,10.26,0,0,1-5.16,1,14.33,14.33,0,0,1-5-1.52,2.37,2.37,0,0,0-.64-.48,2.1,2.1,0,0,1-.56-.4,2.81,2.81,0,0,1-1.6-1.84c-.32-.75-.62-1.54-.88-2.36S1,52.8.75,52A8.13,8.13,0,0,1,0,49,17.75,17.75,0,0,1,.11,46Z"/></g></g></svg>