<?xml version="1.0" encoding="UTF-8"?>
<svg width="72px" height="72px" viewBox="0 0 72 72" version="1.1" xmlns="http://www.w3.org/2000/svg" xmlns:xlink="http://www.w3.org/1999/xlink">
    <!-- Generator: Sketch 54.1 (76490) - https://sketchapp.com -->
    <title>number-04</title>
    <desc>Created with Sketch.</desc>
    <g id="Layouts.1440" stroke="none" stroke-width="1" fill="none" fill-rule="evenodd">
        <g id="AP.1440.01-00.home" transform="translate(-784.000000, -2848.000000)">
            <g id="How-We-Work" transform="translate(256.000000, 1228.000000)">
                <g id="Flow" transform="translate(0.000000, 224.000000)">
                    <g id="Row" transform="translate(0.000000, 1396.000000)">
                        <g id="Block" transform="translate(480.000000, 0.000000)">
                            <g id="number-04" transform="translate(48.000000, 0.000000)">
                                <rect id="circle-bg" fill="#FFFFFF" opacity="0.15" x="0" y="0" width="72" height="72" rx="36"></rect>
                                <rect id="circle-bg" fill="#B3D40E" opacity="0.15" x="13.5" y="13.5" width="45" height="45" rx="22.5"></rect>
                                <path d="M38.40318,29.0079 C38.01798,29.0079 37.71918,28.9962 37.50318,28.9719 C37.28718,28.9485 37.05948,28.9845 36.81918,29.0799 C35.47458,29.7522 34.16688,30.4362 32.89518,31.131 C31.62348,31.8285 30.43458,32.6799 29.33118,33.6879 C29.04408,33.9291 28.79118,34.1919 28.57518,34.4799 C28.35918,34.767 28.13148,35.0559 27.89118,35.3439 C27.36198,35.8722 26.87148,36.1719 26.41608,36.2439 C25.95888,36.3159 25.41798,36.1359 24.79518,35.703 C24.31548,35.3205 23.84658,34.9596 23.39118,34.6239 C22.93488,34.2882 22.51548,33.8805 22.13118,33.3999 C21.36258,32.7285 21.21858,31.9131 21.69918,30.9519 C21.93858,30.4236 22.22658,29.9079 22.56318,29.403 C22.89798,28.8999 23.25888,28.431 23.64408,27.9999 C24.55398,27.0396 25.40808,26.0442 26.19918,25.0119 C26.99118,23.9805 27.79488,22.9599 28.61118,21.9519 C29.71548,20.5596 30.71088,19.1079 31.59918,17.5959 C32.48748,16.0839 33.38748,14.5845 34.29918,13.0959 C34.87518,12.1851 35.38008,11.2725 35.81118,10.3599 C36.24408,9.4491 36.57888,8.4645 36.81918,7.4079 C36.91548,7.0236 37.16658,6.8085 37.57518,6.7599 C37.98198,6.7131 38.30688,6.831 38.54718,7.1199 C39.17088,7.8876 39.79548,8.6211 40.41918,9.3159 C41.04288,10.0125 41.66658,10.7442 42.29118,11.5119 C42.33888,11.5596 42.41088,11.6802 42.50808,11.8719 C42.98688,12.4002 43.10748,13.0725 42.86718,13.8879 C42.62598,14.5602 42.38748,15.0876 42.14718,15.4719 C41.23458,16.9596 40.32288,18.4131 39.41118,19.8279 C38.49858,21.2445 37.61118,22.6485 36.74718,24.039 C36.65088,24.1362 36.61488,24.2676 36.63918,24.4359 C36.66258,24.6042 36.69858,24.7365 36.74718,24.831 C36.93888,25.1199 37.20258,25.2162 37.53918,25.1199 C38.16198,25.1199 38.73888,25.0236 39.26718,24.831 C40.32288,24.4962 41.40288,24.0651 42.50808,23.5359 C43.94718,23.0085 45.02718,22.0491 45.74718,20.6559 C46.32318,19.7442 46.94688,18.7362 47.61918,17.631 C47.66688,17.4879 47.82348,17.4285 48.08718,17.4519 C48.35088,17.4762 48.55518,17.5851 48.69918,17.7759 C49.22658,18.5445 49.78008,19.3131 50.35518,20.0799 C50.93118,20.8485 51.50808,21.6162 52.08318,22.3839 C52.61058,22.9131 52.83918,23.5242 52.76718,24.2199 C52.69518,24.9156 52.41798,25.5042 51.93918,25.9839 C51.31548,26.5599 50.79798,27.1845 50.39118,27.8559 C49.98258,28.5291 49.53888,29.2239 49.05918,29.9439 C48.57948,30.7602 48.06198,31.5396 47.51118,32.2839 C46.95948,33.0291 46.39518,33.7851 45.81918,34.5519 C44.57088,36.2322 43.35948,37.9602 42.18318,39.7359 C41.00688,41.5125 39.74688,43.2396 38.40318,44.9199 C36.91548,46.7442 35.51058,48.6279 34.19118,50.5719 C32.87088,52.5159 31.58748,54.4959 30.33918,56.5119 C29.71548,57.5199 29.18718,58.5765 28.75518,59.6799 C28.37088,60.4962 27.92718,61.2396 27.42318,61.9119 C26.91918,62.5833 26.35398,63.2556 25.73118,63.9279 C25.53858,64.1673 25.20288,64.2762 24.72318,64.2519 C24.24348,64.2276 23.90688,64.0719 23.71608,63.7839 L21.55518,60.5439 C21.50748,60.3999 21.45888,60.2559 21.41118,60.1119 C21.36258,59.967 21.36258,59.8239 21.41118,59.6799 C21.50748,58.7205 21.62718,57.8205 21.77208,56.9799 C21.91608,56.1402 22.27518,55.3599 22.85118,54.639 C23.13918,54.2079 23.41548,53.7759 23.68008,53.3439 C23.94288,52.9119 24.26688,52.5042 24.65118,52.1199 C25.41798,51.4962 26.04348,50.7645 26.52318,49.9239 C27.00288,49.0851 27.45918,48.2571 27.89118,47.439 C29.08998,45.2322 30.53088,43.0479 32.21118,40.8879 C32.35518,40.6485 32.53518,40.4082 32.75118,40.167 C32.96718,39.9285 33.12288,39.6882 33.21918,39.4479 C34.22718,37.8162 35.23518,36.1962 36.24408,34.5879 C37.25118,32.9805 38.35458,31.4082 39.55518,29.8719 C39.74688,29.7765 39.77208,29.6559 39.62718,29.5119 C39.53088,29.4156 39.43458,29.3211 39.33918,29.2239 C39.24288,29.1285 39.14658,29.0565 39.05118,29.0079 C38.76318,28.8639 38.54718,28.8639 38.40318,29.0079" id="Fill-1" fill="#B3D40E"></path>
                            </g>
                        </g>
                    </g>
                </g>
            </g>
        </g>
    </g>
</svg>