<?xml version="1.0" encoding="UTF-8"?>
<svg width="72px" height="72px" viewBox="0 0 72 72" version="1.1" xmlns="http://www.w3.org/2000/svg" xmlns:xlink="http://www.w3.org/1999/xlink">
    <!-- Generator: Sketch 54.1 (76490) - https://sketchapp.com -->
    <title>number-05</title>
    <desc>Created with Sketch.</desc>
    <g id="Layouts.1440" stroke="none" stroke-width="1" fill="none" fill-rule="evenodd">
        <g id="AP.1440.01-00.home" transform="translate(-304.000000, -3296.000000)">
            <g id="How-We-Work" transform="translate(256.000000, 1228.000000)">
                <g id="Flow" transform="translate(0.000000, 224.000000)">
                    <g id="Row" transform="translate(0.000000, 1844.000000)">
                        <g id="Block">
                            <g id="number-05" transform="translate(48.000000, 0.000000)">
                                <rect id="circle-bg" fill="#FFFFFF" opacity="0.15" x="0" y="0" width="72" height="72" rx="36"></rect>
                                <rect id="circle-bg" fill="#B3D40E" opacity="0.15" x="13.5" y="13.5" width="45" height="45" rx="22.5"></rect>
                                <path d="M20.3285454,47.274337 C20.4459558,46.0620752 20.8069926,45.0053821 21.4138573,44.1049916 C22.020722,43.204601 22.7545366,42.3636495 23.6153012,41.5799354 C23.968266,41.2673304 24.3982814,41.0523227 24.9075487,40.9341786 C26.0420262,40.5826814 27.1383452,40.6413865 28.1950383,41.1110279 C28.3513408,41.1499201 28.4489381,41.2673304 28.4885641,41.4625251 C28.5267225,41.6591874 28.5076433,41.8353029 28.429859,41.9916055 C28.2331966,42.3431027 27.9792968,42.6278227 27.6666917,42.8428304 C27.3526191,43.0578381 27.0400141,43.2236802 26.727409,43.3418244 C26.0611053,43.5377529 25.50414,43.8503579 25.0535778,44.2811071 C24.6037495,44.7118563 24.1825399,45.1609508 23.7921505,45.631326 C23.3225091,46.2183777 23.0289833,46.9030268 22.9115729,47.686007 C22.6767523,48.6252897 22.8719469,49.4280829 23.4986246,50.092919 C24.1238347,50.7584889 24.9266279,51.0314679 25.9055366,50.9147914 C26.2181417,50.8362732 26.5212071,50.7680285 26.8154668,50.7093233 C27.1089926,50.6506181 27.3922451,50.5618265 27.6666917,50.4444162 C28.5670823,50.132545 29.4271131,49.7693067 30.2497193,49.3591044 C31.0715916,48.9474344 31.8729172,48.4491742 32.6566312,47.8621225 C32.8914519,47.666194 33.1350784,47.4798051 33.3904459,47.3036896 C33.6443457,47.1283079 33.9275982,46.9426528 34.2416709,46.7459905 C35.4539326,46.1589387 36.4431147,45.3370664 37.206282,44.2811071 C37.9694492,43.2236802 38.742156,42.187534 39.5251362,41.1697331 C39.6425465,40.9738046 39.7592231,40.7492573 39.8773672,40.4946236 C39.9947776,40.2399899 40.1121879,39.9948958 40.2295983,39.760809 C40.5422033,39.1348651 40.6596136,38.53754 40.5818293,37.9695675 C40.5025773,37.4030626 40.3081164,36.8255504 39.9947776,36.2384987 C39.6029206,35.5736627 39.1332792,35.2206978 38.5858535,35.1818057 C38.3891912,35.1032875 38.2035361,35.0343089 38.0281544,34.9756038 C37.8520388,34.9168986 37.6656499,34.927172 37.4697214,35.0049563 C36.4526543,35.1223667 35.4157743,35.2896764 34.3590812,35.5046841 C33.3023881,35.7196918 32.3234794,36.1012754 31.4238227,36.6494349 C30.8749293,36.9627738 30.3671296,37.226947 29.8974882,37.4419547 C29.4271131,37.6576962 28.9582055,37.9211357 28.4885641,38.2344745 C28.2141175,38.3518849 27.9103182,38.3614245 27.578634,38.2638271 C27.2454822,38.1662298 26.9622297,37.99892 26.727409,37.7640994 C26.0611053,37.0992633 25.6501691,36.4241538 25.4946004,35.738771 C25.3375641,35.0548557 25.4358953,34.2623359 25.7873925,33.3612116 C25.983321,32.7741599 26.1990625,32.1973816 26.4338832,31.6301428 C26.6687038,31.0629041 26.9226037,30.4846582 27.1963166,29.8976065 C27.3144607,29.5857353 27.4215977,29.301749 27.5199288,29.0463815 C27.6175262,28.7924817 27.7642891,28.5092292 27.9594838,28.1951566 L33.7720295,18.6849189 C33.8498138,18.5682424 33.9275982,18.4508321 34.0068502,18.3334217 C34.0846345,18.2152776 34.1631527,18.118414 34.2416709,18.039162 C34.8668809,17.1006131 35.0048381,16.0241071 34.652607,14.8111115 C34.4955707,14.4977726 34.5058441,14.2240598 34.6819596,13.9892391 C34.8580751,13.7536846 35.1420614,13.6171951 35.5331846,13.5775691 C35.9632,13.5005185 36.3844096,13.4807056 36.794612,13.5188639 C37.206282,13.5592237 37.6260239,13.7155262 38.0575069,13.9892391 C39.074574,14.7325933 40.1708931,15.1728821 41.3449965,15.3093716 C42.5190999,15.4473288 43.6932033,15.5353865 44.8665729,15.5742787 C45.2973221,15.5742787 45.7273375,15.5060339 46.1588205,15.3688106 C46.5888359,15.2315873 47.0188512,15.1039035 47.4503342,14.9864932 C47.9977599,14.8309245 48.5261065,14.654809 49.0353738,14.4581466 C49.5439074,14.2636858 50.0524409,14.0677573 50.5617083,13.8710949 C50.756903,13.7933106 50.9432919,13.7830372 51.1194074,13.8417424 C51.2955229,13.9011813 51.421739,14.0281313 51.5002572,14.2240598 C51.7358117,15.5155735 52.3023166,16.6111588 53.2034409,17.5108155 C53.47642,17.8637803 53.6921615,18.3136087 53.8491978,18.8610344 C54.0840185,19.3314096 54.0443925,19.801051 53.7317875,20.2699585 C53.2225201,21.1314569 52.5378711,21.6201775 51.6771065,21.7375878 C50.7759821,21.8549981 49.8572462,21.9731423 48.9179635,22.0905526 C47.9786808,22.207963 47.0386642,22.3062941 46.1001153,22.3833447 C45.6686323,22.4618628 45.2290773,22.4816758 44.779249,22.4420498 C44.3286868,22.4038915 43.888398,22.3649993 43.4583826,22.3246395 C43.0276334,22.2864811 42.5968843,22.2571286 42.1668689,22.2373156 C41.7353859,22.2175026 41.3053705,22.1690708 40.8753551,22.0905526 C40.6786928,22.1294448 40.4834981,22.1786104 40.2883034,22.2373156 C40.0923749,22.2960207 39.9551516,22.4038915 39.8773672,22.5594602 C38.9762429,23.6168871 38.0868595,24.7227457 37.206282,25.8770361 C36.3257044,27.0313265 35.6505949,28.2934877 35.1809536,29.6627858 C35.1809536,29.7420378 35.2191119,29.8198222 35.2976301,29.8976065 C35.3761483,29.9768585 35.4539326,30.0546428 35.5331846,30.133161 C35.571343,30.2116792 35.6894871,30.2505713 35.8854156,30.2505713 C36.667662,30.0150168 37.3435053,30.0062111 37.910744,30.2212188 C38.4772489,30.4369603 39.034948,30.8178101 39.5838414,31.3652358 C40.0534827,31.8752369 40.5025773,32.3734971 40.9340603,32.8622176 C41.3640757,33.3524058 41.7353859,33.9291841 42.0494585,34.594754 C42.2842792,35.1429135 42.5484525,35.6903392 42.8419783,36.2384987 C43.1355042,36.7866583 43.4378358,37.334084 43.7519085,37.8815097 C43.947837,38.3129927 44.1327583,38.7136555 44.3096076,39.0856995 C44.4857231,39.4577435 44.6515652,39.8591401 44.8078677,40.2884217 C45.590848,41.8940081 45.551222,43.4790477 44.6911912,45.0442743 C43.8693188,46.6872853 42.9784679,48.2341665 42.020106,49.681249 C41.0602764,51.1297991 39.8186621,52.4220466 38.2915938,53.5565241 C37.1960086,54.3395043 36.1099629,55.0733189 35.0341907,55.757968 C33.9569508,56.442617 32.7931208,57.0590213 31.541233,57.606447 C30.2100933,58.1942325 28.9479321,58.4283194 27.7547495,58.3109091 C26.5600993,58.1942325 25.3375641,57.8214547 24.0856763,57.1962446 C23.92864,57.0399421 23.7716037,56.9225318 23.6153012,56.8432798 C23.4589986,56.7662293 23.3225091,56.6678981 23.2050988,56.5504878 C22.5395289,56.1975229 22.1476719,55.7484284 22.0309954,55.2002688 C21.7961747,54.6528431 21.5804332,54.075331 21.3845047,53.4677325 C21.1885762,52.8616016 20.9933815,52.2451973 20.7981868,51.6192534 C20.4841141,50.9147914 20.3087324,50.2007897 20.2698403,49.4757809 C20.2302143,48.7529735 20.2500273,48.0191588 20.3285454,47.274337" id="Fill-1" fill="#B3D40E"></path>
                            </g>
                        </g>
                    </g>
                </g>
            </g>
        </g>
    </g>
</svg>