<?xml version="1.0" encoding="UTF-8"?>
<svg width="72px" height="72px" viewBox="0 0 72 72" version="1.1" xmlns="http://www.w3.org/2000/svg" xmlns:xlink="http://www.w3.org/1999/xlink">
    <!-- Generator: Sketch 54.1 (76490) - https://sketchapp.com -->
    <title>number-03</title>
    <desc>Created with Sketch.</desc>
    <g id="Layouts.1440" stroke="none" stroke-width="1" fill="none" fill-rule="evenodd">
        <g id="AP.1440.01-00.home" transform="translate(-304.000000, -2416.000000)">
            <g id="How-We-Work" transform="translate(256.000000, 1228.000000)">
                <g id="Flow" transform="translate(0.000000, 224.000000)">
                    <g id="Row" transform="translate(0.000000, 964.000000)">
                        <g id="Block">
                            <g id="number-03" transform="translate(48.000000, 0.000000)">
                                <rect id="circle-bg" fill="#FFFFFF" opacity="0.15" x="0" y="0" width="72" height="72" rx="36"></rect>
                                <rect id="circle-bg" fill="#B3D40E" opacity="0.15" x="13.5" y="13.5" width="45" height="45" rx="22.5"></rect>
                                <path d="M19.125,46.697804 C19.125,44.3253324 19.6772727,42.0341676 20.7818182,39.8250767 C21.3540341,38.7205313 22.1318182,37.7601903 23.1136364,36.9409858 C23.6858523,36.4914972 24.2795455,36.0512131 24.8931818,35.6216676 C25.5068182,35.1921222 26.1204545,34.7526051 26.7340909,34.3023494 C27.0201989,34.1389688 27.3063068,34.0262131 27.5931818,33.9648494 C27.8785227,33.9034858 28.186108,33.9755881 28.5136364,34.1796222 C28.5957102,34.2624631 28.67625,34.3637131 28.7590909,34.4864403 C28.8403977,34.6091676 28.8603409,34.7119517 28.8204545,34.7932585 C28.6563068,35.1614403 28.4929261,35.4682585 28.3295455,35.7137131 C27.7565625,36.3273494 27.2449432,36.9624631 26.7954545,37.6159858 C26.3444318,38.2710426 25.977017,39.0074063 25.6909091,39.8250767 C25.5681818,40.234679 25.3840909,40.622804 25.1386364,40.9909858 C24.8931818,41.3591676 24.6684375,41.7273494 24.4636364,42.0955313 C24.2994886,42.3824063 24.1460795,42.6585426 24.0034091,42.9239403 C23.8599716,43.1901051 23.7272727,43.4670085 23.6045455,43.7523494 C23.27625,44.6942813 23.2148864,45.5526051 23.4204545,46.3296222 L23.7886364,47.8023494 C24.1967045,49.111696 25.0972159,50.0935142 26.4886364,50.747804 C27.6744886,51.2801335 28.8097159,51.4841676 29.8943182,51.3614403 C30.9773864,51.2387131 32.052017,50.747804 33.1159091,49.8887131 C33.8522727,49.2750767 34.5579545,48.6614403 35.2329545,48.047804 C35.9079545,47.4341676 36.5307955,46.7392244 37.1045455,45.9614403 C37.9636364,44.7341676 38.8119886,43.5068949 39.6511364,42.2796222 C40.489517,41.0523494 41.2358523,39.7437699 41.8909091,38.3523494 C42.1363636,37.8207869 42.3411648,37.2892244 42.5045455,36.7568949 C42.6671591,36.2260994 42.7285227,35.6730597 42.6886364,35.1000767 C42.6886364,34.7318949 42.6978409,34.3637131 42.7193182,33.9955313 C42.7392614,33.6273494 42.75,33.2591676 42.75,32.8909858 C42.75,31.8685142 42.2383807,31.2955313 41.2159091,31.172804 C40.8477273,31.0914972 40.4688068,31.0301335 40.0806818,30.9887131 C39.6910227,30.9480597 39.3136364,30.8874631 38.9454545,30.8046222 C38.0863636,30.6412415 37.3592045,30.211696 36.7670455,29.5159858 C36.1741193,28.8210426 35.8358523,28.0432585 35.7545455,27.1841676 C35.7545455,26.4071506 35.8159091,25.6500767 35.9386364,24.9137131 C36.0199432,24.5455313 36.2147727,24.2494517 36.5215909,24.0239403 C36.8284091,23.799196 37.1858523,23.6864403 37.5954545,23.6864403 C38.0449432,23.6864403 38.4852273,23.697179 38.9147727,23.7171222 C39.3443182,23.7378324 39.7838352,23.747804 40.2340909,23.747804 C40.9704545,23.747804 41.6853409,23.5238267 42.3818182,23.072804 C42.9540341,22.7046222 43.5170455,22.3272358 44.0693182,21.9375767 C44.6215909,21.5494517 45.1838352,21.1505881 45.7568182,20.7409858 C46.2876136,20.372804 46.7079545,19.9539972 47.0147727,19.4830313 C47.3215909,19.0128324 47.6383807,18.4920085 47.9659091,17.9182585 C48.2113636,17.3874631 48.2926705,16.7630881 48.2113636,16.0466676 C48.1292898,15.3310142 47.8431818,14.6659858 47.3522727,14.0523494 C47.2295455,13.9702756 47.0960795,13.8483153 46.9534091,13.6841676 C46.8099716,13.521554 46.6772727,13.4387131 46.5545455,13.4387131 C46.3090909,13.4387131 46.0022727,13.3574063 45.6340909,13.1932585 C45.2659091,13.0298778 44.9590909,12.9685142 44.7136364,13.0091676 C44.4267614,13.0091676 44.1,13.0398494 43.7318182,13.1012131 C43.3636364,13.1625767 42.9954545,13.2454176 42.6272727,13.3466676 C42.2590909,13.4494517 41.9215909,13.5829176 41.6147727,13.7455313 C41.3079545,13.909679 41.0717045,14.0937699 40.9090909,14.297804 C40.5815625,14.6253324 40.3153977,14.8914972 40.1113636,15.0955313 C39.9065625,15.3003324 39.7224716,15.4943949 39.5590909,15.6784858 C39.3949432,15.8625767 39.2215909,16.0773494 39.0375,16.322804 C38.8534091,16.5682585 38.6386364,16.8750767 38.3931818,17.2432585 C38.311108,17.3659858 38.1983523,17.5608153 38.0556818,17.8262131 C37.9114773,18.0931449 37.7695739,18.3278608 37.6261364,18.5318949 C37.4826989,18.736696 37.3392614,18.9000767 37.1965909,19.022804 C37.0523864,19.1455313 36.9204545,19.1455313 36.7977273,19.022804 C36.2247443,18.3278608 36.0813068,17.6321506 36.3681818,16.9364403 C37.1444318,14.972804 38.413125,13.2960426 40.1727273,11.9046222 C41.6454545,10.8000767 43.3835795,10.2071506 45.3886364,10.1250767 C45.9608523,10.1250767 46.4625,10.197179 46.8920455,10.3398494 C47.3215909,10.484054 47.7204545,10.7801335 48.0886364,11.2296222 C48.538892,11.7619517 48.9676705,12.2935142 49.3772727,12.8250767 C49.786108,13.3574063 50.1535227,13.9296222 50.4818182,14.5432585 C50.6858523,14.9528608 50.8806818,15.3517244 51.0647727,15.7398494 C51.2488636,16.1287415 51.4636364,16.5068949 51.7090909,16.8750767 C52.3227273,17.8983153 52.6188068,18.9108153 52.5988636,19.9125767 C52.5773864,20.9158722 52.3434375,21.9283722 51.8931818,22.9500767 C51.4022727,24.136696 50.7065625,25.1798778 49.8068182,26.0796222 C49.2338352,26.6533722 48.6501136,27.2148494 48.0579545,27.7671222 C47.4642614,28.3193949 46.8820739,28.8824063 46.3090909,29.4546222 C45.9815625,29.822804 45.8588352,30.2937699 45.9409091,30.8659858 C46.1457102,31.6023494 46.3290341,32.3295085 46.4931818,33.0443949 C46.6565625,33.7608153 46.8,34.4864403 46.9227273,35.222804 C47.0048011,35.796554 47.0960795,36.3580313 47.1988636,36.910304 C47.3001136,37.4625767 47.3108523,38.0255881 47.2295455,38.597804 C47.0239773,39.947804 46.8406534,41.3085426 46.6772727,42.6784858 C46.513125,44.049196 46.2477273,45.3892244 45.8795455,46.697804 C45.55125,47.7624631 45.1531534,48.7642244 44.6829545,49.7046222 C44.2119886,50.6457869 43.6903977,51.5455313 43.1181818,52.4046222 C42.1363636,53.9187699 40.8876136,55.1460426 39.375,56.0864403 C37.9421591,57.0276051 36.43875,57.7639688 34.8647727,58.2955313 C33.2892614,58.8270938 31.6431818,59.1331449 29.925,59.2159858 C28.9431818,59.2566392 28.0119886,59.1546222 27.1329545,58.9091676 C26.2531534,58.6637131 25.4247443,58.2341676 24.6477273,57.6205313 C23.5017614,56.8028608 22.5306818,55.8517244 21.7329545,54.7671222 C20.9352273,53.6832869 20.2494886,52.486696 19.6772727,51.1773494 C19.4717045,50.6457869 19.3298011,50.0329176 19.2477273,49.3364403 C19.2063068,48.8869517 19.1863636,48.4466676 19.1863636,48.0171222 C19.1863636,47.5875767 19.1656534,47.1480597 19.125,46.697804" id="Fill-1" fill="#B3D40E"></path>
                            </g>
                        </g>
                    </g>
                </g>
            </g>
        </g>
    </g>
</svg>