<svg xmlns="http://www.w3.org/2000/svg" viewBox="0 0 42.32 64.03"><defs><style>.cls-1{fill:#b3d40e;}</style></defs><title>no-2</title><g id="Layer_2" data-name="Layer 2"><g id="Line"><path class="cls-1" d="M42.08,17.55a30.77,30.77,0,0,1-1.16,4.68,15.94,15.94,0,0,1-2.2,4.28,3.24,3.24,0,0,0-.48.84c-.11.29-.21.6-.32.92a5.1,5.1,0,0,1-1.52,2.4,19.32,19.32,0,0,0-2,2.4c-.61.85-1.21,1.71-1.8,2.56-.85,1.23-1.72,2.41-2.6,3.56s-1.8,2.25-2.76,3.32a58.62,58.62,0,0,1-4.84,4.76q-2.52,2.2-5.08,4.36a1.38,1.38,0,0,0-.52,1.24c.08.4.41.71,1,.92,1.17.43,2.33.81,3.48,1.16L24.72,56a5.07,5.07,0,0,0,2.4.24,7.07,7.07,0,0,0,4-1A9.38,9.38,0,0,0,34,52.51c.59-.91,1.19-1.77,1.8-2.6a13.7,13.7,0,0,0,1.56-2.76,1.73,1.73,0,0,1,.56-.72,4.09,4.09,0,0,0,.72-.72.32.32,0,0,0,.16,0,.49.49,0,0,1,.24,0c.37-.16.64,0,.8.48a29.36,29.36,0,0,0,.72,3.76,9.06,9.06,0,0,1-1.28,7c-.37.59-.76,1.19-1.16,1.8a10.63,10.63,0,0,0-1,2A3.33,3.33,0,0,1,36.2,62a7.22,7.22,0,0,1-1.4.92,9,9,0,0,1-7.52.56L22.88,62a23.19,23.19,0,0,1-4.24-1.92,16.3,16.3,0,0,0-3.24-1.44c-1.15-.37-2.31-.72-3.48-1A13.13,13.13,0,0,0,9,57.15a6.17,6.17,0,0,0-2.88.56,2.51,2.51,0,0,1-3-.8c-.43-.43-.87-.88-1.32-1.36s-.89-1-1.32-1.44A1.91,1.91,0,0,1,0,52.83a2.5,2.5,0,0,1,.4-1.36,10,10,0,0,1,2.12-2A13.22,13.22,0,0,1,5,48.11a38.5,38.5,0,0,0,5-2.56q2.36-1.44,4.68-3c.43-.27.84-.53,1.24-.8A7.26,7.26,0,0,0,17,40.83q3.36-3.36,6.84-6.56a51.39,51.39,0,0,0,6.36-7c.37-.43.72-.85,1-1.28a11.65,11.65,0,0,1,1.12-1.28,18.09,18.09,0,0,0,2.76-4,44.77,44.77,0,0,0,2-4.44,10,10,0,0,0,.56-2.8q.07-1.44.24-2.88A2.44,2.44,0,0,0,37.68,9a5.79,5.79,0,0,0-1-1.4,1.41,1.41,0,0,0-1.36-.48,7,7,0,0,0-4.72,2.32c-1.12,1.23-2.27,2.45-3.44,3.68a13,13,0,0,0-2.72,4.32,10.27,10.27,0,0,1-.76,1.52q-.43.72-.84,1.44a35.93,35.93,0,0,0-1.56,3.56,19.45,19.45,0,0,0-1,3.8l-.36,1c-.13.37-.28.77-.44,1.2a1.81,1.81,0,0,1-1.32,1.16,2.63,2.63,0,0,1-2-.44,3.1,3.1,0,0,1-1.36-1.84,29.46,29.46,0,0,1-.56-3.64c-.11-1.2-.19-2.41-.24-3.64.05-.37.11-.76.16-1.16a4.25,4.25,0,0,1,.32-1.16q1.37-3.29,2.76-6.48a25.14,25.14,0,0,1,3.72-6A20.64,20.64,0,0,1,23.8,3.83a31.17,31.17,0,0,1,3.32-2.44A9.74,9.74,0,0,1,31.76,0,4.23,4.23,0,0,1,35.6,1.55c.43.48.87,1,1.32,1.4s.89.92,1.32,1.4a2.8,2.8,0,0,1,.32.4,2.78,2.78,0,0,1,.24.4A52.43,52.43,0,0,0,41,10a12.9,12.9,0,0,1,1.36,5.16,9,9,0,0,1-.08,1.2C42.19,16.72,42.13,17.12,42.08,17.55Z"/></g></g></svg>