<svg xmlns="http://www.w3.org/2000/svg" viewBox="0 0 34.89 63.89"><defs><style>.cls-1{fill:#b3d40e;}</style></defs><title>no-4</title><g id="Layer_2" data-name="Layer 2"><g id="Line"><path class="cls-1" d="M18.92,24.73a8.72,8.72,0,0,1-1,0,1.5,1.5,0,0,0-.76.12c-1.49.75-2.95,1.51-4.36,2.28a20.4,20.4,0,0,0-4,2.84,5.36,5.36,0,0,0-.84.88c-.24.32-.49.64-.76,1a3.15,3.15,0,0,1-1.64,1,2.57,2.57,0,0,1-1.8-.6Q3,31.53,2.24,31a7.18,7.18,0,0,1-1.4-1.36,2.06,2.06,0,0,1-.48-2.72,12.71,12.71,0,0,1,1-1.72,13.42,13.42,0,0,1,1.2-1.56,42.22,42.22,0,0,0,2.84-3.32C6.24,19.15,7.13,18,8,16.89a42.35,42.35,0,0,0,3.32-4.84q1.48-2.52,3-5A28.73,28.73,0,0,0,16,4,16,16,0,0,0,17.16.73.9.9,0,0,1,18,0a1.16,1.16,0,0,1,1.08.4c.69.85,1.39,1.67,2.08,2.44s1.39,1.59,2.08,2.44a2.18,2.18,0,0,1,.24.4,2.2,2.2,0,0,1,.4,2.24,9.31,9.31,0,0,1-.8,1.76c-1,1.65-2,3.27-3,4.84s-2,3.13-3,4.68a.47.47,0,0,0-.12.44,1.7,1.7,0,0,0,.12.44.72.72,0,0,0,.88.32,5.69,5.69,0,0,0,1.92-.32,27.55,27.55,0,0,0,3.6-1.44,6.43,6.43,0,0,0,3.6-3.2c.64-1,1.33-2.13,2.08-3.36.05-.16.23-.23.52-.2a.94.94,0,0,1,.68.36c.59.86,1.2,1.71,1.84,2.56l1.92,2.56a2.42,2.42,0,0,1,.76,2,3.16,3.16,0,0,1-.92,2,9.57,9.57,0,0,0-1.72,2.08c-.45.75-1,1.52-1.48,2.32A29.24,29.24,0,0,1,29,28.37c-.61.83-1.24,1.67-1.88,2.52-1.39,1.87-2.73,3.79-4,5.76s-2.71,3.89-4.2,5.76q-2.48,3-4.68,6.28c-1.47,2.16-2.89,4.36-4.28,6.6A21.83,21.83,0,0,0,8.2,58.81a14.39,14.39,0,0,1-1.48,2.48,28.63,28.63,0,0,1-1.88,2.24,1.26,1.26,0,0,1-1.12.36,1.34,1.34,0,0,1-1.12-.52L.2,59.77c-.05-.16-.11-.32-.16-.48a.79.79,0,0,1,0-.48c.11-1.07.24-2.07.4-3a5.66,5.66,0,0,1,1.2-2.6c.32-.48.63-1,.92-1.44a7.17,7.17,0,0,1,1.08-1.36A8.66,8.66,0,0,0,5.72,48c.53-.93,1-1.85,1.52-2.76A53.05,53.05,0,0,1,12,37.93a5.21,5.21,0,0,1,.6-.8,2.8,2.8,0,0,0,.52-.8l3.36-5.4q1.68-2.67,3.68-5.24c.21-.11.24-.24.08-.4L20,25a1.12,1.12,0,0,0-.32-.24Q19.16,24.49,18.92,24.73Z"/></g></g></svg>