<svg version="1.1" xmlns="http://www.w3.org/2000/svg" xmlns:xlink="http://www.w3.org/1999/xlink" x="0px" y="0px" viewBox="0 0 16 16" xml:space="preserve" width="16" height="16"><title>bag</title><g class="nc-icon-wrapper" fill="#a4aaaf"><path fill="#a4aaaf" d="M4,16h8V1c0-0.6-0.4-1-1-1H5C4.4,0,4,0.4,4,1V16z M6,2h4v2H6V2z"/> <path data-color="color-2" d="M15,4h-1v12h1c0.6,0,1-0.4,1-1V5C16,4.4,15.6,4,15,4z"/> <path data-color="color-2" d="M2,4H1C0.4,4,0,4.4,0,5v10c0,0.6,0.4,1,1,1h1V4z"/></g></svg>