<?xml version="1.0" encoding="UTF-8"?>
<svg width="24px" height="24px" viewBox="0 0 24 24" version="1.1" xmlns="http://www.w3.org/2000/svg" xmlns:xlink="http://www.w3.org/1999/xlink">
    <!-- Generator: Sketch 54.1 (76490) - https://sketchapp.com -->
    <title>icon-candidate</title>
    <desc>Created with Sketch.</desc>
    <g id="Symbols" stroke="none" stroke-width="1" fill="none" fill-rule="evenodd">
        <g id="Elements/Footer/Large" transform="translate(-356.000000, -282.000000)" fill="#A4AAAF" fill-rule="nonzero">
            <g id="Career" transform="translate(160.000000, 208.000000)">
                <g id="col-2" transform="translate(192.000000, 70.000000)">
                    <g id="icon">
                        <g id="business-contact-88" transform="translate(4.000000, 4.000000)">
                            <path d="M2.359,16.451 C1.805,15.865 1.333,15.161 1.052,14.317 L0.823,13.633 L1.4,13.2 C2.887,12.085 3.755,10.834 4.268,9.747 C4.608,11.475 5.267,12.97 6.188,14.144 L2.359,16.451 Z M21.641,16.451 L17.813,14.144 C18.734,12.97 19.393,11.474 19.733,9.747 C20.245,10.834 21.113,12.085 22.6,13.2 L23.177,13.633 L22.948,14.317 C22.666,15.162 22.194,15.865 21.641,16.451 Z M21.545,17.561 C22.442,18.1 23,19.086 23,20.133 L23,23 C23,23.553 22.553,24 22,24 L13,24 L13,18 L11,18 L11,24 L2,24 C1.447,24 1,23.553 1,23 L1,20.133 C1,19.086 1.558,18.1 2.455,17.56 L7.77,14.358 C6.045,12.784 5,10.185 5,7 C5,3.141 8.141,0 12,0 C15.859,0 19,3.141 19,7 C19,10.185 17.955,12.785 16.23,14.359 L21.545,17.561 Z M12,14 C14.691,14 16.634,11.591 16.949,8.03 C15.493,7.842 14.13,7.268 12.985,6.348 C11.571,7.487 9.828,8.105 7.985,8.105 C7.678,8.105 7.365,8.073 7.05,8.032 C7.366,11.592 9.309,14 12,14 Z" id="icon-candidate"></path>
                        </g>
                    </g>
                </g>
            </g>
        </g>
    </g>
</svg>