<svg xmlns="http://www.w3.org/2000/svg" viewBox="0 0 43.64 64.01"><defs><style>.cls-1{fill:#b3d40e;}</style></defs><title>no-3</title><g id="Layer_2" data-name="Layer 2"><g id="Line"><path class="cls-1" d="M0,47.68a19.81,19.81,0,0,1,2.16-9A12.21,12.21,0,0,1,5.2,35c.75-.59,1.52-1.16,2.32-1.72s1.6-1.13,2.4-1.72A4,4,0,0,1,11,31.08a1.6,1.6,0,0,1,1.2.28,2.8,2.8,0,0,1,.32.4.4.4,0,0,1,.08.4,8.15,8.15,0,0,1-.64,1.2,21.72,21.72,0,0,0-2,2.48,11.76,11.76,0,0,0-1.44,2.88,5.71,5.71,0,0,1-.72,1.52c-.32.48-.61,1-.88,1.44l-.6,1.08c-.19.35-.36.71-.52,1.08A5.65,5.65,0,0,0,5.6,47.2l.48,1.92A6.21,6.21,0,0,0,9.6,53a8.49,8.49,0,0,0,4.44.8,8.2,8.2,0,0,0,4.2-1.92q1.44-1.2,2.76-2.4a18.82,18.82,0,0,0,2.44-2.72q1.68-2.4,3.32-4.8a37.11,37.11,0,0,0,2.92-5.12,16.14,16.14,0,0,0,.8-2.08,6,6,0,0,0,.24-2.16c0-.48,0-1,0-1.44s0-1,0-1.44a2,2,0,0,0-2-2.24,11.71,11.71,0,0,0-1.48-.24A11.71,11.71,0,0,1,25.84,27,4.79,4.79,0,0,1,23,25.28a5.44,5.44,0,0,1-1.32-3,18,18,0,0,1,.24-3,1.91,1.91,0,0,1,.76-1.16,2.33,2.33,0,0,1,1.4-.44c.59,0,1.16,0,1.72,0s1.13,0,1.72,0a5.07,5.07,0,0,0,2.8-.88c.75-.48,1.48-1,2.2-1.48l2.2-1.56a6.09,6.09,0,0,0,1.64-1.64c.4-.61.81-1.29,1.24-2a4.48,4.48,0,0,0,.32-2.44,5.06,5.06,0,0,0-1.12-2.6,3.12,3.12,0,0,1-.52-.48.77.77,0,0,0-.52-.32A3.16,3.16,0,0,1,34.56,4a2.24,2.24,0,0,0-1.2-.24,7.92,7.92,0,0,0-1.28.12c-.48.08-1,.19-1.44.32a6.48,6.48,0,0,0-1.32.52,2.78,2.78,0,0,0-.92.72l-1,1c-.27.27-.51.52-.72.76s-.44.52-.68.84-.52.72-.84,1.2c-.11.16-.25.41-.44.76a9.28,9.28,0,0,1-.56.92,3.32,3.32,0,0,1-.56.64.34.34,0,0,1-.52,0,2.54,2.54,0,0,1-.56-2.72,15.57,15.57,0,0,1,5-6.56A11.89,11.89,0,0,1,34.24,0a6.1,6.1,0,0,1,2,.28,3.47,3.47,0,0,1,1.56,1.16c.59.69,1.15,1.39,1.68,2.08a16.49,16.49,0,0,1,1.44,2.24c.27.53.52,1,.76,1.56a11.46,11.46,0,0,0,.84,1.48,7.31,7.31,0,0,1,1.16,4,10.28,10.28,0,0,1-.92,4A12.42,12.42,0,0,1,40,20.8c-.75.75-1.51,1.48-2.28,2.2s-1.53,1.45-2.28,2.2A2.15,2.15,0,0,0,35,27c.27,1,.51,1.91.72,2.84s.4,1.88.56,2.84c.11.75.23,1.48.36,2.2a6.75,6.75,0,0,1,0,2.2q-.41,2.64-.72,5.32a34,34,0,0,1-1,5.24,26.24,26.24,0,0,1-1.56,3.92,31.33,31.33,0,0,1-2,3.52,15.63,15.63,0,0,1-4.88,4.8,25.43,25.43,0,0,1-5.88,2.88A23.76,23.76,0,0,1,14.08,64a11.77,11.77,0,0,1-3.64-.4A9.14,9.14,0,0,1,7.2,61.92,17,17,0,0,1,3.4,58.2,24.26,24.26,0,0,1,.72,53.52a9.85,9.85,0,0,1-.56-2.4c0-.59-.08-1.16-.08-1.72S.05,48.27,0,47.68Z"/></g></g></svg>