<svg xmlns="http://www.w3.org/2000/svg" viewBox="0 0 39.29 61.55"><defs><style>.cls-1{fill:#b3d40e;}</style></defs><title>no-1</title><g id="Layer_2" data-name="Layer 2"><g id="Line"><path class="cls-1" d="M24.33,12.61a1.56,1.56,0,0,0-1.12.08c-.32.16-.67.32-1,.48a3.64,3.64,0,0,1-2.72.2,5.71,5.71,0,0,1-2.24-1.56,4.73,4.73,0,0,1-1-1.52.64.64,0,0,1,0-.48c.08-.21.17-.32.28-.32a13.3,13.3,0,0,0,4.6-1.44q2.11-1.13,4.28-2.16a20.75,20.75,0,0,0,3.12-2c1-.75,1.89-1.55,2.8-2.4a8.15,8.15,0,0,1,.88-.76,6.3,6.3,0,0,1,1-.6,1.35,1.35,0,0,1,1.28.08q2.23,2.4,4.16,4.88A3.19,3.19,0,0,1,39.29,7a3,3,0,0,1-.72,1.92c-.91,1.33-1.92,2.67-3,4-.69.85-1.39,1.68-2.08,2.48s-1.36,1.65-2,2.56c-1.39,2-2.73,4-4,5.92s-2.63,3.95-4,5.92a12.66,12.66,0,0,0-.88,1.36,12.66,12.66,0,0,1-.88,1.36,65.17,65.17,0,0,0-6.24,10.24c-.27.48-.52.95-.76,1.4a7.32,7.32,0,0,1-.92,1.32,24.53,24.53,0,0,0-3.12,4.6Q9.38,52.54,8,54.93A7.56,7.56,0,0,0,7.49,56a2.53,2.53,0,0,1-.6.92,6.89,6.89,0,0,0-1.12,3,1.57,1.57,0,0,1-1,1.4A4,4,0,0,1,3,61.49,2.76,2.76,0,0,1,.41,59.17,19.29,19.29,0,0,1,0,54.61a9.67,9.67,0,0,1,1.28-4.4c.16-.32.32-.67.48-1a4.41,4.41,0,0,1,.56-1,38.71,38.71,0,0,0,2.88-4.48,30,30,0,0,1,3-4.4A7.06,7.06,0,0,0,9,38.21c.21-.37.43-.77.64-1.2q2-3.84,4.32-7.4c1.55-2.37,3.09-4.76,4.64-7.16q1.28-1.92,2.52-3.88l2.44-3.88a7.52,7.52,0,0,0,.56-1,2.13,2.13,0,0,0,.16-1.16c.11-.11.16-.19.16-.24A.48.48,0,0,1,24.33,12.61Z"/></g></g></svg>