<?xml version="1.0" encoding="UTF-8"?>
<svg width="72px" height="72px" viewBox="0 0 72 72" version="1.1" xmlns="http://www.w3.org/2000/svg" xmlns:xlink="http://www.w3.org/1999/xlink">
    <!-- Generator: Sketch 54.1 (76490) - https://sketchapp.com -->
    <title>number-01</title>
    <desc>Created with Sketch.</desc>
    <g id="Layouts.1440" stroke="none" stroke-width="1" fill="none" fill-rule="evenodd">
        <g id="AP.1440.01-00.home" transform="translate(-304.000000, -1452.000000)">
            <g id="How-We-Work" transform="translate(256.000000, 1228.000000)">
                <g id="Flow" transform="translate(0.000000, 224.000000)">
                    <g id="Row">
                        <g id="Block">
                            <g id="number-01" transform="translate(48.000000, 0.000000)">
                                <rect id="circle-bg" fill="#FFFFFF" opacity="0.15" x="0" y="0" width="72" height="72" rx="36"></rect>
                                <rect id="circle-bg" fill="#B3D40E" opacity="0.15" x="13.5" y="13.5" width="45" height="45" rx="22.5"></rect>
                                <path d="M39.6548203,20.7627315 C39.2936953,20.673294 38.9789766,20.6952315 38.7098203,20.8302315 C38.4398203,20.9652315 38.1461953,21.1002315 37.8323203,21.2352315 C36.9767578,21.5955128 36.2123203,21.652044 35.5364766,21.4039815 C34.8614766,21.1567628 34.2311953,20.7180128 33.6473203,20.0877315 C33.3317578,19.7730128 33.0617578,19.3452315 32.8373203,18.8052315 C32.7917578,18.715794 32.8035703,18.580794 32.8710703,18.4002315 C32.9385703,18.2205128 33.0161953,18.1302315 33.1064766,18.1302315 C34.5020391,17.9505128 35.7955078,17.5455128 36.9885703,16.9152315 C38.1799453,16.2849503 39.3848203,15.678294 40.5989766,15.0927315 C41.5439766,14.5974503 42.4214766,14.0355128 43.2314766,13.4052315 C44.0414766,12.775794 44.8286953,12.0999503 45.5948203,11.3802315 C45.8192578,11.155794 46.0673203,10.9414815 46.3373203,10.7389815 C46.6064766,10.5364815 46.8773203,10.3677315 47.1473203,10.2327315 C47.2823203,10.143294 47.4730078,10.109544 47.7210703,10.1314815 C47.9682891,10.1542628 48.1361953,10.210794 48.2264766,10.3002315 C49.4861953,11.6502315 50.6573203,13.0230128 51.7364766,14.4177315 C52.0967578,14.9130128 52.2773203,15.4538565 52.2773203,16.0377315 C52.2773203,16.623294 52.0748203,17.1624503 51.6689766,17.6577315 C50.9036953,18.7824503 50.0489766,19.9080128 49.1039766,21.0327315 C48.5192578,21.7524503 47.9345391,22.4502315 47.3489766,23.1252315 C46.7642578,23.8002315 46.2023203,24.520794 45.6614766,25.2852315 C44.4911953,26.9499503 43.3555078,28.6155128 42.2535703,30.2802315 C41.1499453,31.9449503 40.0361953,33.6105128 38.9114766,35.2752315 C38.6423203,35.6355128 38.3942578,36.0177315 38.1689766,36.4227315 C37.9436953,36.8277315 37.6973203,37.210794 37.4264766,37.5702315 C35.4461953,40.2255128 33.6911953,43.1052315 32.1614766,46.2102315 C31.9370391,46.6152315 31.7235703,47.0092628 31.5202266,47.3914815 C31.3177266,47.774544 31.0586953,48.145794 30.7439766,48.5052315 C29.7086953,49.7202315 28.8311953,51.014544 28.1114766,52.3864815 C27.3917578,53.7592628 26.6492578,55.1202315 25.8848203,56.4702315 C25.7042578,56.7849503 25.5574453,57.089544 25.4452266,57.3814815 C25.3321641,57.6742628 25.1642578,57.933294 24.9398203,58.1577315 C24.4436953,58.8774503 24.1298203,59.7338565 23.9939766,60.7227315 C23.9036953,61.352169 23.6336953,61.7453565 23.1839766,61.9039815 C22.7342578,62.060919 22.2161953,62.094669 21.6323203,62.0052315 C20.4611953,61.8702315 19.7414766,61.217169 19.4723203,60.0477315 C19.2023203,58.743294 19.0892578,57.460794 19.1348203,56.2002315 C19.1786953,54.9405128 19.5389766,53.7027315 20.2148203,52.4877315 C20.3489766,52.2177315 20.4839766,51.925794 20.6189766,51.6102315 C20.7548203,51.2963565 20.9117578,51.0255128 21.0923203,50.8002315 C21.9909141,49.5852315 22.8009141,48.3255128 23.5223203,47.0202315 C24.2411953,45.715794 25.0748203,44.4780128 26.0198203,43.3077315 C26.2889766,42.9930128 26.5142578,42.678294 26.6948203,42.3627315 C26.8745391,42.0480128 27.0534141,41.7105128 27.2339766,41.3502315 C28.3586953,39.1902315 29.5736953,37.109544 30.8798203,35.1064815 C32.1834141,33.1042628 33.4886953,31.0902315 34.7939766,29.0652315 C35.5136953,27.9852315 36.2224453,26.8942628 36.9210703,25.7914815 C37.6180078,24.6887003 38.3039766,23.5977315 38.9789766,22.5177315 C39.1586953,22.2477315 39.3173203,21.9667628 39.4523203,21.6739815 C39.5873203,21.3812003 39.6311953,21.0555128 39.5873203,20.6952315 C39.6759141,20.6049503 39.7223203,20.5374503 39.7223203,20.4927315 C39.7223203,20.6277315 39.6986953,20.7180128 39.6548203,20.7627315" id="Fill-1" fill="#B3D40E"></path>
                            </g>
                        </g>
                    </g>
                </g>
            </g>
        </g>
    </g>
</svg>