<svg version="1.1" xmlns="http://www.w3.org/2000/svg" xmlns:xlink="http://www.w3.org/1999/xlink" x="0px" y="0px" viewBox="0 0 16 16" xml:space="preserve" width="16" height="16"><title>archive content</title><g class="nc-icon-wrapper" fill="#a4aaaf"><path fill="#a4aaaf" d="M15,0H1C0.4,0,0,0.4,0,1v14c0,0.6,0.4,1,1,1h14c0.6,0,1-0.4,1-1V1C16,0.4,15.6,0,15,0z M14,2v9h-3 c-0.6,0-1,0.4-1,1v1H6v-1c0-0.6-0.4-1-1-1H2V2H14z"/> <rect data-color="color-2" x="4" y="4" width="8" height="2"/> <rect data-color="color-2" x="4" y="7" width="8" height="2"/></g></svg>
