<?xml version="1.0" encoding="UTF-8"?>
<svg width="72px" height="72px" viewBox="0 0 72 72" version="1.1" xmlns="http://www.w3.org/2000/svg" xmlns:xlink="http://www.w3.org/1999/xlink">
    <!-- Generator: Sketch 54.1 (76490) - https://sketchapp.com -->
    <title>number-02</title>
    <desc>Created with Sketch.</desc>
    <g id="Layouts.1440" stroke="none" stroke-width="1" fill="none" fill-rule="evenodd">
        <g id="AP.1440.01-00.home" transform="translate(-784.000000, -1884.000000)">
            <g id="How-We-Work" transform="translate(256.000000, 1228.000000)">
                <g id="Flow" transform="translate(0.000000, 224.000000)">
                    <g id="Row" transform="translate(0.000000, 432.000000)">
                        <g id="Block" transform="translate(480.000000, 0.000000)">
                            <g id="number-02" transform="translate(48.000000, 0.000000)">
                                <rect id="circle-bg" fill="#FFFFFF" opacity="0.15" x="0" y="0" width="72" height="72" rx="36"></rect>
                                <rect id="circle-bg" fill="#B3D40E" opacity="0.15" x="13.5" y="13.5" width="45" height="45" rx="22.5"></rect>
                                <path d="M52.6836011,24.120075 C52.4698724,25.3960674 52.1620392,26.64016 51.7585066,27.8523528 C51.353379,29.0645457 50.7696125,30.2025714 50.004017,31.2656326 C49.833353,31.4793614 49.7057538,31.7018625 49.6212193,31.9355287 C49.5358873,32.1699923 49.4505553,32.4140258 49.3660208,32.6692243 C49.1108223,33.477087 48.7064922,34.1158807 48.153828,34.583213 C47.5573015,35.1789419 47.0158022,35.8169381 46.5269376,36.4972016 C46.0372755,37.1782626 45.5587784,37.8593235 45.0906486,38.5387895 C44.4103852,39.5173162 43.7197543,40.4639431 43.0179584,41.3778727 C42.3161626,42.2933973 41.5824669,43.175427 40.8168715,44.025557 C39.5823488,45.3868814 38.2967864,46.6517089 36.9569943,47.8216345 C35.6172023,48.9915601 34.2662453,50.1503207 32.9057183,51.2987139 C32.5643904,51.6392444 32.4272212,51.9686099 32.4910208,52.287608 C32.5548204,52.6066062 32.8203863,52.8514372 33.2885161,53.0213037 C34.223978,53.3618342 35.1490725,53.6704649 36.0637996,53.9463982 C36.9777292,54.2239266 37.9028237,54.5102274 38.8390832,54.8076931 C39.4340147,55.0214218 40.0728084,55.084424 40.7530718,54.999092 C41.9429348,55.0413592 42.996426,54.7869582 43.9111531,54.2334965 C44.8250827,53.6808323 45.6018431,52.9367692 46.2398393,52.0005097 C46.7071716,51.277979 47.1856687,50.5873481 47.6753308,49.927022 C48.1633979,49.2682909 48.578893,48.5345953 48.9194234,47.7259351 C49.0039579,47.5130038 49.1522921,47.3224025 49.3660208,47.1517385 C49.5781545,46.981872 49.7695534,46.7904731 49.9402174,46.5775419 C49.9816871,46.5775419 50.0247519,46.5671744 50.0678166,46.5456421 C50.1092864,46.5249072 50.1738835,46.5137423 50.2592155,46.5137423 C50.5558837,46.386143 50.7696125,46.5137423 50.8972117,46.89654 C51.024811,47.9173339 51.2162098,48.917393 51.4706108,49.8951222 C51.8964733,51.8091109 51.5559428,53.6592999 50.4506144,55.4456893 C50.1523511,55.9138191 49.8437205,56.3923162 49.5255198,56.8811808 C49.2065217,57.3708429 48.9401583,57.8916073 48.7280246,58.4442716 C48.5573606,58.9116038 48.313327,59.2832366 47.9943289,59.5607649 C47.6753308,59.8366983 47.302103,60.0807319 46.8778355,60.2944606 C44.9638469,61.3152545 42.9637287,61.4635887 40.8806711,60.741058 C39.6892131,60.3582602 38.5200851,59.9754625 37.3716919,59.5926648 C36.2225012,59.209867 35.0956404,58.69947 33.9903119,58.0614738 C33.1816517,57.5941416 32.3203568,57.2113439 31.4064272,56.9130806 C30.4909026,56.6164124 29.5666056,56.338884 28.6311437,56.0836856 C27.8655482,55.8707543 27.0999527,55.7439526 26.3343573,55.7008878 C25.5687618,55.6586206 24.8031664,55.8069547 24.0375709,56.1474852 C23.1866434,56.5302829 22.3787807,56.3181492 21.6131853,55.509489 C21.2718573,55.169756 20.9209594,54.8076931 20.5604915,54.4248954 C20.1984286,54.0420976 19.8475307,53.6592999 19.5070002,53.2765022 C19.2525992,52.9798339 19.125,52.638506 19.125,52.2557082 C19.125,51.8729105 19.2310669,51.5116451 19.4439981,51.1711147 C19.9543951,50.5331184 20.5174267,50.0019866 21.1338906,49.5761241 C21.7503544,49.1510591 22.421048,48.7897938 23.1443762,48.4915305 C24.5479679,47.8958016 25.876595,47.2155381 27.1318526,46.4499426 C28.3855151,45.6843472 29.6304052,44.8764845 30.8641304,44.025557 C31.2038634,43.8134233 31.533229,43.600492 31.8530246,43.3875608 C32.1720227,43.175427 32.459121,42.9409634 32.7143195,42.6857649 C34.5007089,40.8993755 36.3182006,39.1560509 38.1691871,37.4541959 C40.0193762,35.7531385 41.7100662,33.8814171 43.2412571,31.8398292 C43.5379253,31.4992987 43.8154537,31.1595657 44.0706522,30.8190353 C44.3258507,30.4793023 44.6233164,30.1387718 44.9638469,29.7982413 C45.8562441,28.8205121 46.5899397,27.7678183 47.1649338,26.64016 C47.7391304,25.5140967 48.2590974,24.3338037 48.7280246,23.099281 C48.9824256,22.3759528 49.1315572,21.6318897 49.1746219,20.8662942 C49.2160917,20.1006988 49.2798913,19.3351033 49.3660208,18.5695079 C49.4505553,18.1021756 49.3867557,17.6659457 49.1746219,17.2616156 C48.9608932,16.858083 48.6849598,16.4856527 48.3452268,16.1451222 C48.0046964,15.8053892 47.643431,15.67779 47.2606333,15.7623245 C45.7709121,15.8899237 44.5172495,16.5071851 43.4956581,17.6125135 C42.6024634,18.5910402 41.6877363,19.5687694 40.7530718,20.5472961 C39.8168124,21.5266203 39.0942817,22.6750135 38.5838847,23.9924757 C38.4132207,24.4183382 38.2114544,24.8218708 37.9777883,25.2046685 C37.7433247,25.5874663 37.520026,25.970264 37.3078922,26.3530617 C36.8397625,27.2893212 36.4242675,28.2351506 36.0637996,29.1921449 C35.7017368,30.1491392 35.4353733,31.1595657 35.2663043,32.2226269 C35.1809724,32.4778254 35.0852729,32.7545563 34.979206,33.052022 C34.8723417,33.3502853 34.7559074,33.6692834 34.6275106,34.0090164 C34.4153769,34.5194133 34.0636815,34.828044 33.5756144,34.9341109 C33.0859523,35.0409752 32.5643904,34.9237434 32.0125236,34.583213 C31.5013292,34.2865447 31.1400638,33.7968826 30.9279301,33.1158217 C30.7142013,32.1380924 30.5658672,31.1699332 30.4813327,30.2129389 C30.3960007,29.2559445 30.3322011,28.2893803 30.2899338,27.3100561 C30.3322011,27.0125903 30.3744683,26.7039597 30.4175331,26.3849615 C30.4598003,26.0659634 30.5451323,25.7581303 30.6719341,25.459867 C31.3952623,23.7165424 32.1297554,21.9931551 32.8738185,20.2920976 C33.6178816,18.5910402 34.6059783,16.9960497 35.8405009,15.507126 C36.5199669,14.656996 37.2759924,13.8802356 38.1053875,13.1784398 C38.9347826,12.476644 39.8168124,11.8282803 40.7530718,11.2325513 C41.7738658,10.5945551 43.0067935,10.2332898 44.4534499,10.1479578 C45.6871751,10.0203585 46.7071716,10.4246886 47.5158318,11.3601506 C47.8555647,11.7429483 48.2064627,12.1153786 48.5685255,12.476644 C48.9289934,12.8387068 49.2798913,13.2103396 49.6212193,13.5931373 C49.7057538,13.6784693 49.7902883,13.7845362 49.8756203,13.9121355 C49.9609523,14.0397347 50.0247519,14.1465991 50.0678166,14.2311336 C50.5774161,15.5493933 51.1524102,16.8365506 51.7904064,18.0910107 C52.4284026,19.3462683 52.789668,20.7171626 52.875,22.2060863 C52.875,22.5466168 52.8526701,22.8656149 52.8112004,23.1630806 C52.7681356,23.4613439 52.7258684,23.780342 52.6836011,24.120075" id="Fill-1" fill="#B3D40E"></path>
                            </g>
                        </g>
                    </g>
                </g>
            </g>
        </g>
    </g>
</svg>