<svg xmlns="http://www.w3.org/2000/svg" viewBox="0 0 544 128"><defs><style>.cls-1{fill:#2578db;}.cls-2{fill:#b3d40e;}.cls-3{fill:#2078c6;}</style></defs><title>ap-logo</title><g id="Layer_2" data-name="Layer 2"><g id="Sketch"><path class="cls-1" d="M200.4,97.4a2.48,2.48,0,0,1,.11,1c0,3.31-3.21,5.07-6.21,5.07a6.19,6.19,0,0,1-5.38-3.11l-4.87-9.62H160.46l-4.87,9.62a6.21,6.21,0,0,1-5.38,3.11c-3,0-6.21-1.76-6.21-5.07a2.71,2.71,0,0,1,.1-1l26-51.23a2.36,2.36,0,0,1,4.35,0ZM178.77,80.33l-6.52-13-6.52,13Z"/><path class="cls-1" d="M206.07,50.62a5.88,5.88,0,0,1,5.79-5.9,6,6,0,0,1,5.9,5.9V66.35c3.62-4.55,9.21-4.76,11.08-4.76,11.38,0,19.66,9.42,19.66,21s-8.07,21.43-19,21.43c-4.76,0-11.9-1.87-14.18-6.42L215.07,99a4.5,4.5,0,0,1-4.45,4.56A4.59,4.59,0,0,1,206.07,99ZM236.8,82.71c0-6.21-4-10.46-9.31-10.46s-9.73,4.14-9.73,10.46,4.45,11,9.73,11S236.8,88.92,236.8,82.71Z"/><path class="cls-1" d="M260,44a6.93,6.93,0,0,1,6.93,6.93A6.82,6.82,0,0,1,260,57.66a6.71,6.71,0,0,1-6.73-6.73A6.82,6.82,0,0,1,260,44Zm-5.8,24a5.88,5.88,0,0,1,5.8-5.9,6,6,0,0,1,5.9,5.9v29.6a6,6,0,0,1-5.9,5.9,5.88,5.88,0,0,1-5.8-5.9Z"/><path class="cls-1" d="M275.2,50.62a5.88,5.88,0,0,1,5.8-5.9,6,6,0,0,1,5.9,5.9v47a6,6,0,0,1-5.9,5.9,5.88,5.88,0,0,1-5.8-5.9Z"/><path class="cls-1" d="M302,44a6.93,6.93,0,0,1,6.93,6.93A6.82,6.82,0,0,1,302,57.66a6.71,6.71,0,0,1-6.73-6.73A6.82,6.82,0,0,1,302,44Zm-5.8,24a5.88,5.88,0,0,1,5.8-5.9,6,6,0,0,1,5.9,5.9v29.6a6,6,0,0,1-5.9,5.9,5.88,5.88,0,0,1-5.8-5.9Z"/><path class="cls-1" d="M334.92,104c-8.9,0-14.07-3.94-14.07-17.6V72.25h-3a5.33,5.33,0,0,1,0-10.66h3v-11a5.88,5.88,0,0,1,5.79-5.9,6,6,0,0,1,5.9,5.9v11h4.86a5.33,5.33,0,0,1,0,10.66h-4.86v11.9c0,7.87.31,9.53,3.93,9.53h1.66a5.18,5.18,0,0,1,5.17,5.17,5.26,5.26,0,0,1-5.17,5.18Z"/><path class="cls-1" d="M351.58,116.86c0-2.38,2-5.18,4.35-5.18,2.07,0,5.38,2,11.07,2,7.35,0,8.9-3.52,9.21-8.8v-3.72A16.54,16.54,0,0,1,366,104c-11.7,0-16.87-8.7-16.87-18.53V68a5.88,5.88,0,0,1,5.79-5.9,6,6,0,0,1,5.9,5.9V84.36c0,5.07.62,9.32,8,9.32,5.28,0,7.35-4.25,7.35-9.32V68a5.88,5.88,0,0,1,5.8-5.9,6,6,0,0,1,5.9,5.9V103.2c0,14.8-10.35,20.8-19.77,20.8-5.9,0-10.14-.62-13.87-2.69A5.14,5.14,0,0,1,351.58,116.86Z"/><path class="cls-1" d="M408.82,97.61a6,6,0,0,1-5.9,5.9,5.88,5.88,0,0,1-5.8-5.9v-47a5.88,5.88,0,0,1,5.8-5.9h21c9.62,0,17.59,7.77,17.59,19.67s-8,19.46-17.59,19.46H408.82ZM422.89,73c3.73,0,6.94-2.69,6.94-8.49s-3.21-8.38-6.94-8.38H408.82V73Z"/><path class="cls-1" d="M447.08,50.62a5.88,5.88,0,0,1,5.8-5.9,6,6,0,0,1,5.89,5.9v47a6,6,0,0,1-5.89,5.9,5.88,5.88,0,0,1-5.8-5.9Z"/><path class="cls-1" d="M483.92,104c-11.69,0-16.86-8.7-16.86-18.53V68a5.87,5.87,0,0,1,5.79-5.9,6,6,0,0,1,5.9,5.9V84.36c0,5.07.62,9.32,8,9.32,5.28,0,7.35-4.25,7.35-9.32V68a5.87,5.87,0,0,1,5.79-5.9,6,6,0,0,1,5.9,5.9V99a4.59,4.59,0,0,1-4.55,4.56,4.51,4.51,0,0,1-4.35-4.66C492,103.41,488,104,483.92,104Z"/><path class="cls-1" d="M511.61,97c0-2.38,2-4.76,4.34-4.76a2.1,2.1,0,0,1,.83.1,28,28,0,0,0,10,2.07c1.66,0,5.48-.52,5.48-2.59,0-5.59-20.8-2-20.8-17.9,0-8.38,7.25-12.32,16.67-12.32a34.41,34.41,0,0,1,9.93,1.56,5.25,5.25,0,0,1,3.62,5.07c0,2.38-2.17,4.86-4.55,4.86a2.1,2.1,0,0,1-.83-.1,33.65,33.65,0,0,0-8.69-1c-4.14,0-4.45,1-4.45,2.38,0,4.87,20.8,3.52,20.8,16.56,0,10-9.11,13.15-17.08,13.15-4,0-8-.31-12-2.28A4.92,4.92,0,0,1,511.61,97Z"/><path class="cls-2" d="M101.65,0A26.36,26.36,0,1,0,128,26.35,26.36,26.36,0,0,0,101.65,0Zm9.93,30.67H106v6.2a4.32,4.32,0,1,1-8.63,0v-6.2H91.72a4.32,4.32,0,0,1,0-8.63h5.61v-6.2a4.32,4.32,0,1,1,8.63,0V22h5.62a4.32,4.32,0,0,1,0,8.63Z"/><path class="cls-1" d="M101.65,58.35A32,32,0,0,1,71.7,15.06H7.06A7.06,7.06,0,0,0,0,22.12v98.82A7.06,7.06,0,0,0,7.06,128h98.82a7.06,7.06,0,0,0,7.06-7.06V56.3A32,32,0,0,1,101.65,58.35ZM83.46,112.94a6,6,0,0,1-5.7-3.45L70.6,96.11H34.94l-7.29,13.38a6,6,0,0,1-5.7,3.45,6.28,6.28,0,0,1-6.23-6.49,6.68,6.68,0,0,1,.66-2.66L49.13,40a3.88,3.88,0,0,1,7.15,0L89,103.79a6.68,6.68,0,0,1,.66,2.66A6.28,6.28,0,0,1,83.46,112.94Z"/><polygon class="cls-3" points="40.91 85.1 64.64 85.1 52.71 63.1 40.91 85.1"/></g></g></svg>